<?xml version="1.0" encoding="utf-8"?>
<!-- Generator: Adobe Illustrator 28.0.0, SVG Export Plug-In . SVG Version: 6.00 Build 0)  -->
<svg version="1.1" id="Layer_1" xmlns="http://www.w3.org/2000/svg" xmlns:xlink="http://www.w3.org/1999/xlink" x="0px" y="0px"
	 viewBox="0 0 512 512" style="enable-background:new 0 0 512 512;" xml:space="preserve">
<style type="text/css">
	.st0{fill-rule:evenodd;clip-rule:evenodd;}
</style>
<g>
	<path fill="#FFFFFF" class="st0" d="M150.46,1.54C177.76,0.28,186.47,0,256,0c69.55,0,78.24,0.3,105.53,1.54c27.26,1.24,45.88,5.58,62.17,11.9
		c17.08,6.43,32.55,16.51,45.34,29.53c13.02,12.79,23.1,28.26,29.53,45.34c6.33,16.28,10.65,34.9,11.9,62.15
		C511.72,177.76,512,186.47,512,256c0,69.53-0.3,78.24-1.54,105.54c-1.24,27.25-5.58,45.87-11.9,62.15
		c-6.54,16.83-15.3,31.12-29.53,45.34c-12.79,13.02-28.26,23.1-45.34,29.53c-16.28,6.33-34.9,10.65-62.15,11.9
		C334.24,511.72,325.53,512,256,512c-69.53,0-78.24-0.3-105.54-1.54c-27.25-1.24-45.87-5.58-62.15-11.9
		c-16.83-6.54-31.12-15.3-45.34-29.53c-13.02-12.79-23.1-28.26-29.53-45.34c-6.33-16.28-10.65-34.9-11.9-62.15
		C0.28,334.24,0,325.55,0,256c0-69.55,0.3-78.24,1.54-105.53c1.24-27.26,5.58-45.88,11.9-62.17c6.43-17.08,16.51-32.55,29.53-45.34
		c12.79-13.02,28.26-23.1,45.34-29.53C104.59,7.11,123.21,2.79,150.46,1.54z M359.45,47.62c-26.99-1.22-35.1-1.49-103.45-1.49
		s-76.46,0.27-103.45,1.49c-24.96,1.14-38.51,5.3-47.53,8.82c-11.95,4.64-20.48,10.18-29.44,19.14
		c-8.95,8.96-14.51,17.49-19.14,29.44c-3.51,9.02-7.68,22.57-8.82,47.53c-1.22,26.99-1.49,35.1-1.49,103.45s0.27,76.46,1.49,103.45
		c1.14,24.96,5.3,38.51,8.82,47.53c4.1,11.12,10.64,21.18,19.14,29.44c8.26,8.5,18.32,15.04,29.44,19.14
		c9.02,3.51,22.57,7.68,47.53,8.82c26.99,1.22,35.09,1.49,103.45,1.49c68.37,0,76.46-0.27,103.45-1.49
		c24.96-1.14,38.51-5.3,47.53-8.82c11.95-4.64,20.48-10.18,29.44-19.14c8.5-8.26,15.04-18.32,19.14-29.44
		c3.51-9.02,7.68-22.57,8.82-47.53c1.22-26.99,1.49-35.1,1.49-103.45s-0.27-76.46-1.49-103.45c-1.14-24.96-5.3-38.51-8.82-47.53
		c-4.64-11.95-10.18-20.48-19.14-29.44c-8.96-8.95-17.49-14.51-29.44-19.14C397.97,52.92,384.41,48.75,359.45,47.62z M223.31,334.92
		c10.36,4.29,21.47,6.5,32.69,6.5c22.66,0,44.38-9,60.4-25.02c16.02-16.02,25.02-37.75,25.02-60.4s-9-44.38-25.02-60.4
		c-16.02-16.02-37.74-25.02-60.4-25.02c-11.22,0-22.32,2.21-32.69,6.5c-10.37,4.29-19.78,10.58-27.71,18.52
		c-7.93,7.93-14.22,17.35-18.52,27.71c-4.29,10.36-6.5,21.47-6.5,32.69s2.21,22.33,6.5,32.69c4.29,10.36,10.58,19.78,18.52,27.71
		C203.53,324.33,212.95,330.62,223.31,334.92z M162.96,162.96c24.68-24.68,58.15-38.54,93.04-38.54c34.9,0,68.37,13.86,93.04,38.54
		c24.68,24.68,38.54,58.15,38.54,93.04s-13.86,68.37-38.54,93.04c-24.68,24.68-58.14,38.54-93.04,38.54
		c-34.9,0-68.37-13.86-93.04-38.54c-24.68-24.68-38.54-58.15-38.54-93.04S138.28,187.63,162.96,162.96z M416.76,144.02
		c5.83-5.83,9.11-13.74,9.11-21.99c0-8.25-3.28-16.16-9.11-21.99c-5.83-5.83-13.74-9.11-22-9.11c-8.25,0-16.16,3.28-21.99,9.11
		c-5.83,5.83-9.11,13.74-9.11,21.99c0,8.25,3.28,16.16,9.11,21.99c5.83,5.83,13.74,9.11,21.99,9.11
		C403.02,153.13,410.93,149.85,416.76,144.02z"/>
</g>
</svg>
